<svg width="36" height="36" viewBox="0 0 36 36" fill="none" xmlns="http://www.w3.org/2000/svg">
<path d="M36 18C36 27.941 27.941 36 18 36C8.06 36 0 27.941 0 18C0 8.06 8.06 0 18 0C27.941 0 36 8.06 36 18Z" fill="#FFCC4D"/>
<path d="M25 26H11C10.448 26 10 25.553 10 25C10 24.447 10.448 24 11 24H25C25.553 24 26 24.447 26 25C26 25.553 25.553 26 25 26ZM15 18H8C7.448 18 7 17.552 7 17C7 16.448 7.448 16 8 16H15C15.552 16 16 16.448 16 17C16 17.552 15.552 18 15 18ZM28 18H21C20.447 18 20 17.552 20 17C20 16.448 20.447 16 21 16H28C28.553 16 29 16.448 29 17C29 17.552 28.553 18 28 18Z" fill="#664500"/>
</svg>
