<svg width="32" height="32" viewBox="0 0 32 32" fill="none" xmlns="http://www.w3.org/2000/svg">
<circle cx="16" cy="16" r="16" fill="url(#paint0_linear)"/>
<path d="M5.43266 22.4243V21.0707C6.75491 19.9125 7.88543 18.8822 8.82423 17.9798C9.77625 17.0775 10.5035 16.2559 11.0059 15.5152C11.5216 14.761 11.7795 14.0539 11.7795 13.394C11.7795 12.7206 11.5745 12.1819 11.1646 11.7778C10.7547 11.3738 10.1531 11.1718 9.35974 11.1718C8.81762 11.1718 8.31517 11.3132 7.85238 11.596C7.38959 11.8788 6.96647 12.2155 6.58302 12.6061L5.3335 11.3132C5.94173 10.6802 6.58302 10.1953 7.25737 9.85863C7.93171 9.50846 8.73167 9.33337 9.65725 9.33337C10.5299 9.33337 11.2836 9.49499 11.9183 9.81822C12.5662 10.1415 13.0686 10.5994 13.4257 11.192C13.7827 11.7846 13.9612 12.4782 13.9612 13.2728C13.9612 14.027 13.7298 14.8014 13.267 15.596C12.8042 16.3771 12.1761 17.1785 11.3828 18C10.6027 18.8216 9.72336 19.6835 8.7449 20.5859C9.11513 20.559 9.50519 20.532 9.91508 20.5051C10.325 20.4647 10.7018 20.4445 11.0456 20.4445H14.6157V22.4243H5.43266Z" fill="white"/>
<path d="M21.9861 22.6667C20.5448 22.6667 19.4011 22.0876 18.5548 20.9293C17.7218 19.7576 17.3053 18.0943 17.3053 15.9394C17.3053 13.7711 17.7218 12.128 18.5548 11.0101C19.4011 9.8923 20.5448 9.33337 21.9861 9.33337C23.4273 9.33337 24.5645 9.8923 25.3975 11.0101C26.2437 12.128 26.6668 13.7711 26.6668 15.9394C26.6668 18.0943 26.2437 19.7576 25.3975 20.9293C24.5645 22.0876 23.4273 22.6667 21.9861 22.6667ZM21.9861 20.8485C22.7398 20.8485 23.3612 20.4714 23.8504 19.7172C24.3529 18.9495 24.6041 17.6903 24.6041 15.9394C24.6041 14.7677 24.4917 13.8317 24.2669 13.1314C24.0422 12.431 23.7314 11.926 23.3348 11.6162C22.9381 11.3064 22.4885 11.1516 21.9861 11.1516C21.4836 11.1516 21.0341 11.3064 20.6374 11.6162C20.2407 11.926 19.93 12.431 19.7052 13.1314C19.4804 13.8317 19.368 14.7677 19.368 15.9394C19.368 17.6903 19.6126 18.9495 20.1019 19.7172C20.6043 20.4714 21.2324 20.8485 21.9861 20.8485ZM21.9861 17.293C21.6158 17.293 21.2919 17.165 21.0142 16.9091C20.7498 16.6532 20.6175 16.3031 20.6175 15.8586C20.6175 15.4142 20.7498 15.064 21.0142 14.8081C21.2919 14.5522 21.6158 14.4243 21.9861 14.4243C22.3695 14.4243 22.6935 14.5522 22.9579 14.8081C23.2224 15.064 23.3546 15.4142 23.3546 15.8586C23.3546 16.3031 23.2224 16.6532 22.9579 16.9091C22.6935 17.165 22.3695 17.293 21.9861 17.293Z" fill="white"/>
<defs>
<linearGradient id="paint0_linear" x1="7.33333" y1="2.66667" x2="26.6667" y2="28.6667" gradientUnits="userSpaceOnUse">
<stop stop-color="#00D7E7"/>
<stop offset="0.615007" stop-color="#006AE7"/>
<stop offset="1" stop-color="#E200E7"/>
</linearGradient>
</defs>
</svg>
