<svg width="147" height="48" viewBox="0 0 147 48" fill="none" xmlns="http://www.w3.org/2000/svg">
<g filter="url(#filter0_d)">
<path d="M70.1276 39.2562L7.18175 41.5045L6 9.89461L132.908 5.57642L133.624 18.8643" stroke="white" stroke-miterlimit="10"/>
</g>
<g filter="url(#filter1_d)">
<path d="M93.6282 38.4189L90.9932 38.512" stroke="white" stroke-miterlimit="10"/>
</g>
<g filter="url(#filter2_d)">
<path d="M113.309 37.716L110.532 37.8168" stroke="white" stroke-miterlimit="10"/>
</g>
<g filter="url(#filter3_d)">
<path d="M132.06 37.0468L121.559 37.4215" stroke="white" stroke-miterlimit="10"/>
</g>
<g filter="url(#filter4_d)">
<path d="M29.767 27.3352L27.0337 17.2155L23.835 17.3396L21.8438 27.5782L19.6898 17.4972L16.0359 17.6368L20.1397 33.5528L23.4548 33.4262L25.4537 22.5054L28.4792 33.235L31.8667 33.1058L34.7086 16.9235L31.1505 17.0605L29.767 27.3352Z" stroke="white" stroke-miterlimit="10"/>
</g>
<g filter="url(#filter5_d)">
<path d="M40.3846 16.7065L34.825 32.9869L38.5254 32.8474L39.6813 29.1881L45.6624 29.0253L47.095 32.5192L50.8368 32.377L43.7825 16.5773L40.3846 16.7065ZM40.6846 26.0096L42.3111 20.8541L44.3798 25.8804L40.6846 26.0096Z" stroke="white" stroke-miterlimit="10"/>
</g>
<g filter="url(#filter6_d)">
<path d="M55.4889 16.1304L52.0005 16.2647L52.6444 32.3126L64.3637 31.8655V28.457L55.9569 28.8084L55.4889 16.1304Z" stroke="white" stroke-miterlimit="10"/>
</g>
<g filter="url(#filter7_d)">
<path d="M72.7187 28.0176L69.9958 28.1339L69.5329 15.5928L66.0471 15.7272L66.6884 31.7776L71.3948 31.5967" stroke="white" stroke-miterlimit="10"/>
</g>
<g filter="url(#filter8_d)">
<path d="M88.9376 16.6679L89.0565 23.025L91.014 22.9372L90.8485 16.593L92.9793 16.5129L92.9224 14.7014L86.4939 14.9469L86.5689 16.7558L88.9376 16.6679Z" stroke="white" stroke-miterlimit="10"/>
</g>
<g filter="url(#filter9_d)">
<path d="M82.116 23.4486L82.6927 23.6786L85.0691 22.8723L86.1629 20.8877L85.2811 19.2028L80.9989 17.3318L82.6409 16.479L84.6114 17.4921L86.1293 16.0475L82.5401 14.6158L80.1637 15.4221L79.0698 17.4068L79.9516 19.0891L84.2364 20.9626L82.5944 21.8128L80.6214 20.8024L79.106 22.247L80.2981 22.7225" stroke="white" stroke-miterlimit="10"/>
</g>
<g filter="url(#filter10_d)">
<path d="M80.4219 24.1621L75.1855 26.2631L72.9461 31.3539L72.9435 36.0442L71.136 38.3261L73.6831 38.4889L77.1663 42.4169L83.6802 42.9906L89.4855 38.8352L90.3673 33.7417L91.8232 33.7779L93.9358 37.5353L102.162 40.6131L108.285 38.8558L109.958 35.5119L108.864 33.827L113.573 32.5969L115.28 37.9152L118.59 38.7602L120.785 36.0391L119.929 35.1036L118.885 31.2066L125.494 29.7931L125.885 28.6354L129.97 29.6354L136.324 30.452L132.828 35.468L133.241 36.5301L135.398 35.9564L139.58 31.9044L142 26.8368L134.524 26.4052L129.701 25.2888L130.811 24.4955L137.33 24.1363L140.239 20.3375L132.758 20.26L128.747 19.7638L127.074 20.8543L124.307 22.41L125.683 23.8313L122.854 26.2295L123.456 27.3097L118.46 28.4157L118.062 19.1229L115.944 18.4898L112.071 20.689L113.025 29.9223L107.341 31.8346L106.26 31.1136L105.138 32.1886L103.796 32.9613L105.87 35.2922L105.019 37.5663L100.362 37.0521L96.8993 33.5221L101.463 32.8734L106.214 30.7389L109.495 28.1469L110.305 24.7849L105.027 23.8546L95.8572 26.2837L92.2628 30.0877L90.9879 29.9249L89.8087 30.9172L88.3451 28.563L82.6251 29.0902L77.4895 32.1835L78.3998 28.5346L80.4219 24.1621Z" stroke="#E10901" stroke-miterlimit="10"/>
<path d="M77.7402 35.2018L83.0542 31.5942H86.1444V37.4914L82.4466 40.7009L79.328 38.5018L77.7402 35.2018Z" stroke="#E10901" stroke-miterlimit="10"/>
<path d="M96.2063 30.713L97.2381 28.8266L101.037 27.0228L106.304 26.8367L103.576 29.837L99.4206 30.9973L96.2063 30.713Z" stroke="#E10901" stroke-miterlimit="10"/>
</g>
<defs>
<filter id="filter0_d" x="0.481689" y="0.0600586" width="138.642" height="46.9619" filterUnits="userSpaceOnUse" color-interpolation-filters="sRGB">
<feFlood flood-opacity="0" result="BackgroundImageFix"/>
<feColorMatrix in="SourceAlpha" type="matrix" values="0 0 0 0 0 0 0 0 0 0 0 0 0 0 0 0 0 0 127 0"/>
<feOffset/>
<feGaussianBlur stdDeviation="2.5"/>
<feColorMatrix type="matrix" values="0 0 0 0 1 0 0 0 0 1 0 0 0 0 1 0 0 0 1 0"/>
<feBlend mode="normal" in2="BackgroundImageFix" result="effect1_dropShadow"/>
<feBlend mode="normal" in="SourceGraphic" in2="effect1_dropShadow" result="shape"/>
</filter>
<filter id="filter1_d" x="85.9756" y="32.9193" width="12.6703" height="11.0924" filterUnits="userSpaceOnUse" color-interpolation-filters="sRGB">
<feFlood flood-opacity="0" result="BackgroundImageFix"/>
<feColorMatrix in="SourceAlpha" type="matrix" values="0 0 0 0 0 0 0 0 0 0 0 0 0 0 0 0 0 0 127 0"/>
<feOffset/>
<feGaussianBlur stdDeviation="2.5"/>
<feColorMatrix type="matrix" values="0 0 0 0 1 0 0 0 0 1 0 0 0 0 1 0 0 0 1 0"/>
<feBlend mode="normal" in2="BackgroundImageFix" result="effect1_dropShadow"/>
<feBlend mode="normal" in="SourceGraphic" in2="effect1_dropShadow" result="shape"/>
</filter>
<filter id="filter2_d" x="105.514" y="32.2163" width="12.8135" height="11.1001" filterUnits="userSpaceOnUse" color-interpolation-filters="sRGB">
<feFlood flood-opacity="0" result="BackgroundImageFix"/>
<feColorMatrix in="SourceAlpha" type="matrix" values="0 0 0 0 0 0 0 0 0 0 0 0 0 0 0 0 0 0 127 0"/>
<feOffset/>
<feGaussianBlur stdDeviation="2.5"/>
<feColorMatrix type="matrix" values="0 0 0 0 1 0 0 0 0 1 0 0 0 0 1 0 0 0 1 0"/>
<feBlend mode="normal" in2="BackgroundImageFix" result="effect1_dropShadow"/>
<feBlend mode="normal" in="SourceGraphic" in2="effect1_dropShadow" result="shape"/>
</filter>
<filter id="filter3_d" x="116.541" y="31.5471" width="20.537" height="11.3741" filterUnits="userSpaceOnUse" color-interpolation-filters="sRGB">
<feFlood flood-opacity="0" result="BackgroundImageFix"/>
<feColorMatrix in="SourceAlpha" type="matrix" values="0 0 0 0 0 0 0 0 0 0 0 0 0 0 0 0 0 0 127 0"/>
<feOffset/>
<feGaussianBlur stdDeviation="2.5"/>
<feColorMatrix type="matrix" values="0 0 0 0 1 0 0 0 0 1 0 0 0 0 1 0 0 0 1 0"/>
<feBlend mode="normal" in2="BackgroundImageFix" result="effect1_dropShadow"/>
<feBlend mode="normal" in="SourceGraphic" in2="effect1_dropShadow" result="shape"/>
</filter>
<filter id="filter4_d" x="10.3967" y="11.4001" width="29.9114" height="27.6678" filterUnits="userSpaceOnUse" color-interpolation-filters="sRGB">
<feFlood flood-opacity="0" result="BackgroundImageFix"/>
<feColorMatrix in="SourceAlpha" type="matrix" values="0 0 0 0 0 0 0 0 0 0 0 0 0 0 0 0 0 0 127 0"/>
<feOffset/>
<feGaussianBlur stdDeviation="2.5"/>
<feColorMatrix type="matrix" values="0 0 0 0 1 0 0 0 0 1 0 0 0 0 1 0 0 0 1 0"/>
<feBlend mode="normal" in2="BackgroundImageFix" result="effect1_dropShadow"/>
<feBlend mode="normal" in="SourceGraphic" in2="effect1_dropShadow" result="shape"/>
</filter>
<filter id="filter5_d" x="29.1167" y="11.0648" width="27.4783" height="27.4492" filterUnits="userSpaceOnUse" color-interpolation-filters="sRGB">
<feFlood flood-opacity="0" result="BackgroundImageFix"/>
<feColorMatrix in="SourceAlpha" type="matrix" values="0 0 0 0 0 0 0 0 0 0 0 0 0 0 0 0 0 0 127 0"/>
<feOffset/>
<feGaussianBlur stdDeviation="2.5"/>
<feColorMatrix type="matrix" values="0 0 0 0 1 0 0 0 0 1 0 0 0 0 1 0 0 0 1 0"/>
<feBlend mode="normal" in2="BackgroundImageFix" result="effect1_dropShadow"/>
<feBlend mode="normal" in="SourceGraphic" in2="effect1_dropShadow" result="shape"/>
</filter>
<filter id="filter6_d" x="46.4807" y="10.6115" width="23.3828" height="27.2198" filterUnits="userSpaceOnUse" color-interpolation-filters="sRGB">
<feFlood flood-opacity="0" result="BackgroundImageFix"/>
<feColorMatrix in="SourceAlpha" type="matrix" values="0 0 0 0 0 0 0 0 0 0 0 0 0 0 0 0 0 0 127 0"/>
<feOffset/>
<feGaussianBlur stdDeviation="2.5"/>
<feColorMatrix type="matrix" values="0 0 0 0 1 0 0 0 0 1 0 0 0 0 1 0 0 0 1 0"/>
<feBlend mode="normal" in2="BackgroundImageFix" result="effect1_dropShadow"/>
<feBlend mode="normal" in="SourceGraphic" in2="effect1_dropShadow" result="shape"/>
</filter>
<filter id="filter7_d" x="60.5276" y="10.0739" width="17.2125" height="27.2225" filterUnits="userSpaceOnUse" color-interpolation-filters="sRGB">
<feFlood flood-opacity="0" result="BackgroundImageFix"/>
<feColorMatrix in="SourceAlpha" type="matrix" values="0 0 0 0 0 0 0 0 0 0 0 0 0 0 0 0 0 0 127 0"/>
<feOffset/>
<feGaussianBlur stdDeviation="2.5"/>
<feColorMatrix type="matrix" values="0 0 0 0 1 0 0 0 0 1 0 0 0 0 1 0 0 0 1 0"/>
<feBlend mode="normal" in2="BackgroundImageFix" result="effect1_dropShadow"/>
<feBlend mode="normal" in="SourceGraphic" in2="effect1_dropShadow" result="shape"/>
</filter>
<filter id="filter8_d" x="80.9736" y="9.1825" width="17.5211" height="19.365" filterUnits="userSpaceOnUse" color-interpolation-filters="sRGB">
<feFlood flood-opacity="0" result="BackgroundImageFix"/>
<feColorMatrix in="SourceAlpha" type="matrix" values="0 0 0 0 0 0 0 0 0 0 0 0 0 0 0 0 0 0 127 0"/>
<feOffset/>
<feGaussianBlur stdDeviation="2.5"/>
<feColorMatrix type="matrix" values="0 0 0 0 1 0 0 0 0 1 0 0 0 0 1 0 0 0 1 0"/>
<feBlend mode="normal" in2="BackgroundImageFix" result="effect1_dropShadow"/>
<feBlend mode="normal" in="SourceGraphic" in2="effect1_dropShadow" result="shape"/>
</filter>
<filter id="filter9_d" x="73.197" y="9.08313" width="18.8419" height="20.1282" filterUnits="userSpaceOnUse" color-interpolation-filters="sRGB">
<feFlood flood-opacity="0" result="BackgroundImageFix"/>
<feColorMatrix in="SourceAlpha" type="matrix" values="0 0 0 0 0 0 0 0 0 0 0 0 0 0 0 0 0 0 127 0"/>
<feOffset/>
<feGaussianBlur stdDeviation="2.5"/>
<feColorMatrix type="matrix" values="0 0 0 0 1 0 0 0 0 1 0 0 0 0 1 0 0 0 1 0"/>
<feBlend mode="normal" in2="BackgroundImageFix" result="effect1_dropShadow"/>
<feBlend mode="normal" in="SourceGraphic" in2="effect1_dropShadow" result="shape"/>
</filter>
<filter id="filter10_d" x="66.1511" y="13.9496" width="80.6208" height="33.5552" filterUnits="userSpaceOnUse" color-interpolation-filters="sRGB">
<feFlood flood-opacity="0" result="BackgroundImageFix"/>
<feColorMatrix in="SourceAlpha" type="matrix" values="0 0 0 0 0 0 0 0 0 0 0 0 0 0 0 0 0 0 127 0"/>
<feOffset/>
<feGaussianBlur stdDeviation="2"/>
<feColorMatrix type="matrix" values="0 0 0 0 1 0 0 0 0 0.282353 0 0 0 0 0.243137 0 0 0 1 0"/>
<feBlend mode="normal" in2="BackgroundImageFix" result="effect1_dropShadow"/>
<feBlend mode="normal" in="SourceGraphic" in2="effect1_dropShadow" result="shape"/>
</filter>
</defs>
</svg>
