<svg width="18" height="18" viewBox="0 0 18 18" fill="none" xmlns="http://www.w3.org/2000/svg">
<path d="M6.83596 13.9546C6.82682 14.0926 6.87528 14.2283 6.96982 14.3293C7.06436 14.4303 7.19652 14.4876 7.33486 14.4876C7.57545 14.4876 7.77719 14.4293 7.95337 14.3239C8.10334 14.2342 8.22074 14.1165 8.29867 14.0384C8.30193 14.0351 8.30512 14.0319 8.30825 14.0288L9.49362 12.8792L12.2577 14.9222C12.2753 14.9352 12.2938 14.9471 12.313 14.9577C12.6572 15.1479 13.0821 15.2657 13.4842 15.0832C13.8879 14.9001 14.0838 14.4987 14.1692 14.0905C14.1692 14.0903 14.1693 14.09 14.1693 14.0898L16.2072 4.49215C16.3342 3.97503 16.266 3.46365 15.9223 3.12739C15.5725 2.78514 15.0782 2.76221 14.6657 2.94311L2.69993 7.5586L2.6999 7.55854L2.6927 7.56145C2.45552 7.65719 2.24729 7.77397 2.08689 7.91629C1.93007 8.05543 1.77917 8.25611 1.75326 8.51654C1.72535 8.79713 1.85323 9.02806 2.02105 9.18273C2.17767 9.32707 2.37971 9.41953 2.58545 9.47884L5.65374 10.4517C5.79428 10.4963 5.94731 10.4765 6.07195 10.3978L10.0523 7.8828L7.21017 10.4436C7.11347 10.5308 7.05455 10.6522 7.04596 10.7821L6.83596 13.9546Z" stroke="#A09FA2" stroke-linecap="round" stroke-linejoin="round"/>
</svg>
