<svg width="18" height="18" viewBox="0 0 18 18" fill="none" xmlns="http://www.w3.org/2000/svg">
<path d="M17.2608 4.77735C17.3847 4.59157 17.3703 4.34619 17.2257 4.17609C17.081 4.006 16.8411 3.95242 16.6379 4.04482C16.6227 4.05171 16.6075 4.05854 16.5923 4.0653C16.7117 3.85075 16.8107 3.62268 16.8864 3.38352C16.9493 3.1852 16.8827 2.9687 16.7194 2.83988C16.556 2.71107 16.33 2.69686 16.1518 2.80421C15.6546 3.10372 15.1077 3.32661 14.5283 3.47121C13.8593 2.85173 12.9767 2.5 11.9998 2.5C9.95962 2.5 8.29729 4.16538 8.29729 6.2175C8.29729 6.2793 8.29881 6.34067 8.30178 6.40155C6.0248 6.12655 4.01348 4.96578 2.63743 3.2767C2.534 3.14974 2.37495 3.08147 2.21167 3.09395C2.04839 3.10644 1.90157 3.19808 1.81864 3.33929C1.49652 3.88777 1.31479 4.53006 1.31479 5.205C1.31479 5.85398 1.47963 6.46746 1.77274 7.00015C1.68654 7.00222 1.60093 7.02657 1.52484 7.07288C1.37577 7.16361 1.28479 7.32549 1.28479 7.5V7.5V7.50001V7.50001V7.50002V7.50002V7.50002V7.50003V7.50003V7.50004V7.50004V7.50005V7.50005V7.50005V7.50006V7.50007V7.50007V7.50008V7.50008V7.50009V7.5001V7.5001V7.50011V7.50011V7.50011V7.50012V7.50012V7.50013V7.50013V7.50013V7.50014V7.50014V7.50015V7.50015V7.50016V7.50016V7.50017V7.50017V7.50018V7.50018V7.50019V7.50019V7.5002V7.50021V7.50021V7.50022V7.50022V7.50023V7.50024V7.50024V7.50025V7.50026V7.50026V7.50027V7.50028V7.50028V7.50029V7.5003V7.5003V7.50031V7.50032V7.50033V7.50034V7.50034V7.50035V7.50036V7.50037V7.50038V7.50039V7.50039V7.5004V7.50041V7.50042V7.50043V7.50044V7.50045V7.50046V7.50047V7.50048V7.50049V7.5005V7.50051V7.50052V7.50053V7.50054V7.50055V7.50057V7.50058V7.50059V7.5006V7.50061V7.50062V7.50064V7.50065V7.50066V7.50067V7.50069V7.5007V7.50071V7.50073V7.50074V7.50075V7.50077V7.50078V7.50079V7.50081V7.50082V7.50084V7.50085V7.50087V7.50088V7.5009V7.50091V7.50093V7.50095V7.50096V7.50098V7.50099V7.50101V7.50103V7.50104V7.50106V7.50108V7.5011V7.50111V7.50113V7.50115V7.50117V7.50119V7.5012V7.50122V7.50124V7.50126V7.50128V7.5013V7.50132V7.50134V7.50136V7.50138V7.5014V7.50142V7.50144V7.50147V7.50149V7.50151V7.50153V7.50155V7.50157V7.5016V7.50162V7.50164V7.50167V7.50169V7.50171V7.50174V7.50176V7.50178V7.50181V7.50183V7.50186V7.50188V7.50191V7.50194V7.50196V7.50199V7.50201V7.50204V7.50207V7.50209V7.50212V7.50215V7.50218V7.5022V7.50223V7.50226V7.50229V7.50232V7.50235V7.50238V7.50241V7.50244V7.50247V7.5025V7.50253V7.50256V7.50259V7.50262V7.50265V7.50268V7.50271V7.50275V7.50278V7.50281V7.50285V7.50288V7.50291V7.50295V7.50298V7.50302V7.50305V7.50308V7.50312V7.50316V7.50319V7.50323V7.50326V7.5033V7.50334V7.50337V7.50341V7.50345V7.50349V7.50352V7.50356V7.5036V7.50364V7.50368V7.50372V7.50376V7.5038V7.50384V7.50388V7.50392V7.50396V7.504V7.50405V7.50409V7.50413V7.50417V7.50422V7.50426V7.5043V7.50435V7.50439V7.50444V7.50448V7.50453V7.50457V7.50462V7.50466V7.50471V7.50476V7.5048V7.50485V7.5049V7.50495V7.50499V7.50504V7.50509V7.50514V7.50519V7.50524V7.50529V7.50534V7.50539V7.50544V7.50549V7.50554V7.5056V7.50565V7.5057V7.50575V7.50581V7.50586V7.50592V7.50597V7.50602V7.50608V7.50613V7.50619V7.50625V7.5063V7.50636V7.50642V7.50647V7.50653V7.50659V7.50665V7.50671V7.50676V7.50682V7.50688V7.50694V7.507V7.50706V7.50713V7.50719V7.50725V7.50731V7.50737V7.50744V7.5075V7.50756V7.50763V7.50769V7.50776V7.50782V7.50789V7.50795V7.50802V7.50808V7.50815V7.50822V7.50829V7.50835V7.50842V7.50849V7.50856V7.50863V7.5087V7.50877V7.50884V7.50891V7.50898V7.50905V7.50913V7.5092V7.50927V7.50934V7.50942V7.50949V7.50957V7.50964V7.50972V7.50979V7.50987V7.50994V7.51002V7.5101V7.51018V7.51025V7.51033V7.51041V7.51049V7.51057V7.51065V7.51073V7.51081V7.51089V7.51097V7.51105V7.51114V7.51122V7.5113V7.51139V7.51147V7.51155V7.51164V7.51172V7.51181V7.5119V7.51198V7.51207V7.51216V7.51224V7.51233V7.51242V7.51251V7.5126V7.51269V7.51278V7.51287V7.51296V7.51305V7.51314V7.51324V7.51333V7.51342V7.51352V7.51361V7.5137V7.5138V7.51389V7.51399V7.51409V7.51418V7.51428V7.51438V7.51448V7.51457V7.51467V7.51477V7.51487V7.51497V7.51507V7.51517V7.51528V7.51538V7.51548V7.51558V7.51569V7.51579V7.5159V7.516V7.51611V7.51621V7.51632V7.51642V7.51653V7.51664V7.51675V7.51686V7.51696V7.51707V7.51718V7.51729V7.5174V7.51752V7.51763V7.51774V7.51785V7.51797V7.51808V7.51819V7.51831V7.51842V7.51854V7.51866V7.51877V7.51889V7.51901V7.51912V7.51924V7.51936V7.51948V7.5196V7.51972V7.51984V7.51997V7.52009V7.52021V7.52033V7.52046V7.52058V7.5207V7.52083V7.52095V7.52108V7.52121V7.52133V7.52146V7.52159V7.52172V7.52185V7.52198V7.52211V7.52224V7.52237V7.5225C1.28479 8.65517 1.7913 9.67164 2.59004 10.3545C2.57358 10.3687 2.55796 10.3841 2.54329 10.4006C2.42617 10.5326 2.3873 10.7166 2.44101 10.8847C2.77799 11.9393 3.57878 12.8024 4.61487 13.2116C3.80901 13.6197 2.89405 13.8475 1.91979 13.8475C1.68444 13.8475 1.44895 13.8337 1.21321 13.8059C0.981981 13.7787 0.762581 13.9147 0.684071 14.1339C0.605561 14.3531 0.688721 14.5974 0.88463 14.7232C2.3874 15.6882 4.17569 16.25 6.08979 16.25C12.333 16.25 15.7473 11.0604 15.7473 6.5925V6.5872C15.7473 6.53196 15.7473 6.47559 15.7468 6.41795C16.3366 5.95874 16.8446 5.40167 17.2608 4.77735Z" stroke="#A09FA2" stroke-linecap="round" stroke-linejoin="round"/>
</svg>
