<svg width="24" height="36" viewBox="0 0 24 36" fill="none" xmlns="http://www.w3.org/2000/svg">
<path d="M15 18C15 15.999 18.246 14.631 20 12C22 9 22 2 22 2H2C2 2 2 9 4 12C5.754 14.631 9 15.999 9 18C9 20.001 5.754 21.369 4 24C2 27 2 34 2 34H22C22 34 22 27 20 24C18.246 21.369 15 20.001 15 18Z" fill="#FFE8B6"/>
<path d="M14.999 24C14 24 12.942 23 12.942 22C13 20.287 13 19.154 13 18C13 14.78 16.034 13.439 17.9 11H6.1C7.965 13.439 11 14.78 11 18C11 19.155 11 20.289 11.058 22C11.058 23 10 24 9 24C7 24 5.405 25.784 5 27C4 30 4 34 4 34H20C20 34 20 30 19 27C18.595 25.784 16.999 24 14.999 24Z" fill="#FFAC33"/>
<path d="M24 34C24 35.104 23.104 36 22 36H2C0.896 36 0 35.104 0 34C0 32.896 0.896 32 2 32H22C23.104 32 24 32.896 24 34ZM24 2C24 3.104 23.104 4 22 4H2C0.896 4 0 3.104 0 2C0 0.896 0.896 0 2 0H22C23.104 0 24 0.896 24 2Z" fill="#3B88C3"/>
</svg>
